<?xml version="1.0" standalone="no"?>
<!DOCTYPE svg PUBLIC "-//W3C//DTD SVG 20010904//EN"
 "http://www.w3.org/TR/2001/REC-SVG-20010904/DTD/svg10.dtd">
<svg version="1.0" xmlns="http://www.w3.org/2000/svg"
 width="517.000000pt" height="517.000000pt" viewBox="0 0 517.000000 517.000000"
 preserveAspectRatio="xMidYMid meet">
<metadata>
Created by potrace 1.14, written by Peter Selinger 2001-2017
</metadata>
<g transform="translate(0.000000,517.000000) scale(0.100000,-0.100000)"
fill="#000000" stroke="none">
<path d="M2445 4399 c-119 -39 -477 -132 -800 -209 -143 -34 -296 -72 -340
-85 -121 -36 -300 -137 -477 -268 -72 -53 -168 -163 -168 -192 0 -19 42 -97
68 -127 8 -10 22 -18 30 -18 8 0 78 38 156 84 77 47 152 89 166 94 14 6 133
36 265 67 226 54 534 131 560 141 7 3 -7 -51 -31 -123 -47 -137 -88 -311 -154
-648 -108 -551 -133 -671 -144 -681 -6 -7 -51 -24 -101 -39 -321 -96 -640
-247 -938 -447 -275 -183 -373 -287 -435 -461 -22 -62 -26 -88 -26 -192 0
-143 21 -231 89 -370 147 -303 336 -450 554 -432 93 8 166 38 326 135 77 47
178 103 225 125 209 98 347 239 488 497 96 175 216 501 293 790 18 69 36 129
40 133 17 21 982 177 997 162 15 -15 -227 -885 -360 -1293 l-39 -123 27 -47
c36 -63 54 -82 76 -82 10 0 73 33 141 74 67 40 172 99 233 129 l112 56 37 118
c115 364 235 779 316 1093 17 69 35 128 39 133 7 8 322 31 577 42 l152 7 28
-32 28 -31 73 15 c58 12 94 29 180 83 59 37 165 96 236 132 169 85 172 92 93
212 -23 36 -41 52 -67 59 -81 23 -538 9 -985 -30 -120 -11 -220 -18 -222 -16
-1 1 8 59 22 128 38 200 73 440 90 612 l15 159 -39 61 c-56 89 -71 92 -185 33
-108 -55 -288 -172 -339 -219 -33 -31 -35 -38 -41 -118 -11 -130 -43 -377 -74
-560 l-28 -165 -34 -7 c-19 -5 -159 -28 -310 -53 -151 -25 -360 -62 -465 -84
-104 -21 -191 -38 -192 -37 -1 1 16 87 37 191 21 105 66 330 100 500 120 612
178 781 311 919 38 39 69 79 69 88 0 19 -66 128 -84 140 -21 14 -81 6 -171
-23z m-955 -2365 c0 -22 -61 -238 -111 -390 -91 -279 -170 -458 -272 -618
l-50 -78 -43 5 c-61 6 -127 42 -194 104 -46 43 -65 69 -90 129 -97 233 -74
444 64 600 42 48 56 56 168 97 68 25 193 65 278 91 233 68 250 72 250 60z"/>
</g>
</svg>
